{
  "accessors": [
    {
      "bufferView": 1,
      "componentType": 5126,
      "count": 65532,
      "max": [
        0.6767584681510925,
        0.6484515070915222,
        0.747816264629364
      ],
      "min": [
        -0.6812855005264282,
        -0.6662299036979675,
        -0.6795932650566101
      ],
      "type": "VEC3"
    },
    {
      "bufferView": 1,
      "byteOffset": 786384,
      "componentType": 5126,
      "count": 65532,
      "max": [
        0.9999145269393921,
        0.998947024345398,
        0.9998410940170288
      ],
      "min": [
        -0.9998630881309509,
        -0.9999558925628662,
        -0.9996225833892822
      ],
      "type": "VEC3"
    },
    {
      "bufferView": 0,
      "componentType": 5125,
      "count": 126942,
      "type": "SCALAR"
    },
    {
      "bufferView": 1,
      "byteOffset": 1572768,
      "componentType": 5126,
      "count": 65532,
      "max": [
        0.8805940747261047,
        0.709137499332428,
        0.7491104602813721
      ],
      "min": [
        -0.7715904116630554,
        -0.7249705791473389,
        -0.8348102569580078
      ],
      "type": "VEC3"
    },
    {
      "bufferView": 1,
      "byteOffset": 2359152,
      "componentType": 5126,
      "count": 65532,
      "max": [
        0.9999793171882629,
        0.9999990463256836,
        0.9999751448631287
      ],
      "min": [
        -0.9999793171882629,
        -0.9999951124191284,
        -0.9998859763145447
      ],
      "type": "VEC3"
    },
    {
      "bufferView": 0,
      "byteOffset": 507768,
      "componentType": 5125,
      "count": 96558,
      "type": "SCALAR"
    },
    {
      "bufferView": 1,
      "byteOffset": 3145536,
      "componentType": 5126,
      "count": 65533,
      "max": [
        0.9998120665550232,
        0.9773738980293274,
        0.9992456436157227
      ],
      "min": [
        -1.0003827810287476,
        -0.9776020050048828,
        -0.9939283728599548
      ],
      "type": "VEC3"
    },
    {
      "bufferView": 1,
      "byteOffset": 3931932,
      "componentType": 5126,
      "count": 65533,
      "max": [
        0.999878466129303,
        0.9999951124191284,
        0.999948263168335
      ],
      "min": [
        -0.9999825358390808,
        -1.0,
        -0.9999753832817078
      ],
      "type": "VEC3"
    },
    {
      "bufferView": 0,
      "byteOffset": 894000,
      "componentType": 5125,
      "count": 96471,
      "type": "SCALAR"
    },
    {
      "bufferView": 1,
      "byteOffset": 4718328,
      "componentType": 5126,
      "count": 65533,
      "max": [
        0.5290122628211975,
        0.5069816708564758,
        0.5279275178909302
      ],
      "min": [
        -0.5116350054740906,
        -0.4959665834903717,
        -0.5284642577171326
      ],
      "type": "VEC3"
    },
    {
      "bufferView": 1,
      "byteOffset": 5504724,
      "componentType": 5126,
      "count": 65533,
      "max": [
        0.999882161617279,
        0.9999976754188538,
        0.9997351765632629
      ],
      "min": [
        -0.9997314214706421,
        -0.999981701374054,
        -0.9999666810035706
      ],
      "type": "VEC3"
    },
    {
      "bufferView": 0,
      "byteOffset": 1279884,
      "componentType": 5125,
      "count": 96477,
      "type": "SCALAR"
    },
    {
      "bufferView": 1,
      "byteOffset": 6291120,
      "componentType": 5126,
      "count": 48756,
      "max": [
        0.9998120665550232,
        0.9773738980293274,
        0.9992456436157227
      ],
      "min": [
        -1.0003827810287476,
        -0.9776020050048828,
        -0.9939283728599548
      ],
      "type": "VEC3"
    },
    {
      "bufferView": 1,
      "byteOffset": 6876192,
      "componentType": 5126,
      "count": 48756,
      "max": [
        0.9999302625656128,
        0.9998323321342468,
        0.9994431138038635
      ],
      "min": [
        -0.9998354911804199,
        -0.9997835159301758,
        -0.9999436140060425
      ],
      "type": "VEC3"
    },
    {
      "bufferView": 0,
      "byteOffset": 1665792,
      "componentType": 5125,
      "count": 89664,
      "type": "SCALAR"
    },
    {
      "bufferView": 2,
      "componentType": 5126,
      "count": 349,
      "max": [
        5.0
      ],
      "min": [
        0.0
      ],
      "type": "SCALAR"
    },
    {
      "bufferView": 4,
      "componentType": 5126,
      "count": 349,
      "max": [
        -0.3586711883544922,
        0.6093888878822327,
        0.6093892455101013,
        0.7071065902709961
      ],
      "min": [
        -0.7071069478988647,
        0.0,
        0.0,
        0.3586709499359131
      ],
      "type": "VEC4"
    },
    {
      "bufferView": 2,
      "byteOffset": 1396,
      "componentType": 5126,
      "count": 4,
      "max": [
        5.0
      ],
      "min": [
        0.0
      ],
      "type": "SCALAR"
    },
    {
      "bufferView": 3,
      "componentType": 5126,
      "count": 4,
      "max": [
        100.0,
        100.0,
        100.0
      ],
      "min": [
        99.99999237060547,
        99.99999237060547,
        100.0
      ],
      "type": "VEC3"
    },
    {
      "bufferView": 2,
      "byteOffset": 1412,
      "componentType": 5126,
      "count": 350,
      "max": [
        5.0
      ],
      "min": [
        0.0
      ],
      "type": "SCALAR"
    },
    {
      "bufferView": 4,
      "byteOffset": 5584,
      "componentType": 5126,
      "count": 350,
      "max": [
        -0.4909490644931793,
        0.5088899731636047,
        0.5088894367218018,
        0.7071065902709961
      ],
      "min": [
        -0.7071069478988647,
        -2.675656585182651e-09,
        0.0,
        0.4909496307373047
      ],
      "type": "VEC4"
    },
    {
      "bufferView": 2,
      "byteOffset": 2812,
      "componentType": 5126,
      "count": 4,
      "max": [
        5.0
      ],
      "min": [
        0.0
      ],
      "type": "SCALAR"
    },
    {
      "bufferView": 3,
      "byteOffset": 48,
      "componentType": 5126,
      "count": 4,
      "max": [
        100.0,
        100.0,
        100.0
      ],
      "min": [
        99.99999237060547,
        99.99999237060547,
        100.0
      ],
      "type": "VEC3"
    },
    {
      "bufferView": 2,
      "byteOffset": 2828,
      "componentType": 5126,
      "count": 350,
      "max": [
        5.0
      ],
      "min": [
        0.0
      ],
      "type": "SCALAR"
    },
    {
      "bufferView": 4,
      "byteOffset": 11184,
      "componentType": 5126,
      "count": 350,
      "max": [
        0.49934709072113037,
        0.5088899731636047,
        0.5088894367218018,
        0.7071065902709961
      ],
      "min": [
        -0.7071069478988647,
        -0.4997320771217346,
        -0.49973228573799133,
        -0.4993468225002289
      ],
      "type": "VEC4"
    }
  ],
  "animations": [
    {
      "channels": [
        {
          "sampler": 0,
          "target": {
            "node": 4,
            "path": "rotation"
          }
        }
      ],
      "name": "Plane|Empty.001Action",
      "samplers": [
        {
          "input": 15,
          "interpolation": "LINEAR",
          "output": 16
        }
      ]
    },
    {
      "channels": [
        {
          "sampler": 0,
          "target": {
            "node": 4,
            "path": "scale"
          }
        },
        {
          "sampler": 1,
          "target": {
            "node": 4,
            "path": "rotation"
          }
        }
      ],
      "name": "Plane|EmptyAction",
      "samplers": [
        {
          "input": 17,
          "interpolation": "LINEAR",
          "output": 18
        },
        {
          "input": 19,
          "interpolation": "LINEAR",
          "output": 20
        }
      ]
    },
    {
      "channels": [
        {
          "sampler": 0,
          "target": {
            "node": 4,
            "path": "scale"
          }
        },
        {
          "sampler": 1,
          "target": {
            "node": 4,
            "path": "rotation"
          }
        }
      ],
      "name": "Plane|PlaneAction",
      "samplers": [
        {
          "input": 21,
          "interpolation": "LINEAR",
          "output": 22
        },
        {
          "input": 23,
          "interpolation": "LINEAR",
          "output": 24
        }
      ]
    }
  ],
  "asset": {
    "extras": {
      "author": "SonicVisual (https://sketchfab.com/sonicvisual)",
      "license": "CC-BY-4.0 (http://creativecommons.org/licenses/by/4.0/)",
      "source": "https://sketchfab.com/3d-models/geometry-texture-effect-spheres-5058a0f82e744c27988304db012647d0",
      "title": "Geometry Texture Effect Spheres"
    },
    "generator": "Sketchfab-16.61.0",
    "version": "2.0"
  },
  "bufferViews": [
    {
      "buffer": 0,
      "byteLength": 2024448,
      "name": "floatBufferViews",
      "target": 34963
    },
    {
      "buffer": 0,
      "byteLength": 7461264,
      "byteOffset": 2024448,
      "byteStride": 12,
      "name": "floatBufferViews",
      "target": 34962
    },
    {
      "buffer": 0,
      "byteLength": 4228,
      "byteOffset": 9485712,
      "name": "floatBufferViews"
    },
    {
      "buffer": 0,
      "byteLength": 96,
      "byteOffset": 9489940,
      "byteStride": 12,
      "name": "floatBufferViews"
    },
    {
      "buffer": 0,
      "byteLength": 16784,
      "byteOffset": 9490036,
      "byteStride": 16,
      "name": "floatBufferViews"
    }
  ],
  "buffers": [
    {
      "byteLength": 9506820,
      "uri": "scene.bin"
    }
  ],
  "extensionsUsed": [
    "KHR_materials_transmission",
    "KHR_materials_specular"
  ],
  "materials": [
    {
      "alphaMode": "BLEND",
      "doubleSided": true,
      "extensions": {
        "KHR_materials_specular": {
          "specularColorFactor": [
            1.0,
            1.0,
            1.0
          ],
          "specularFactor": 1.0
        },
        "KHR_materials_transmission": {
          "transmissionFactor": 1.0
        }
      },
      "name": "Material.001",
      "pbrMetallicRoughness": {
        "baseColorFactor": [
          0.3813901124811034,
          0.4230633588279806,
          0.7926760664667006,
          0.25
        ],
        "metallicFactor": 0.2969741953064155,
        "roughnessFactor": 0.21312836911823763
      }
    }
  ],
  "meshes": [
    {
      "name": "Plane_Material.001_0",
      "primitives": [
        {
          "attributes": {
            "NORMAL": 1,
            "POSITION": 0
          },
          "indices": 2,
          "material": 0,
          "mode": 4
        }
      ]
    },
    {
      "name": "Plane_Material.001_0",
      "primitives": [
        {
          "attributes": {
            "NORMAL": 4,
            "POSITION": 3
          },
          "indices": 5,
          "material": 0,
          "mode": 4
        }
      ]
    },
    {
      "name": "Plane_Material.001_0",
      "primitives": [
        {
          "attributes": {
            "NORMAL": 7,
            "POSITION": 6
          },
          "indices": 8,
          "material": 0,
          "mode": 4
        }
      ]
    },
    {
      "name": "Plane_Material.001_0",
      "primitives": [
        {
          "attributes": {
            "NORMAL": 10,
            "POSITION": 9
          },
          "indices": 11,
          "material": 0,
          "mode": 4
        }
      ]
    },
    {
      "name": "Plane_Material.001_0",
      "primitives": [
        {
          "attributes": {
            "NORMAL": 13,
            "POSITION": 12
          },
          "indices": 14,
          "material": 0,
          "mode": 4
        }
      ]
    }
  ],
  "nodes": [
    {
      "children": [
        1
      ],
      "matrix": [
        -2.220446049250313e-16,
        1.0,
        6.049014853807253e-16,
        0.0,
        2.220446049250313e-16,
        -6.049014853807253e-16,
        1.0,
        0.0,
        1.0,
        2.2204460492503136e-16,
        -2.2204460492503126e-16,
        0.0,
        0.0,
        0.0,
        0.0,
        1.0
      ],
      "name": "Sketchfab_model"
    },
    {
      "children": [
        2
      ],
      "matrix": [
        0.009999999776482582,
        0.0,
        0.0,
        0.0,
        0.0,
        0.0,
        0.009999999776482582,
        0.0,
        0.0,
        -0.009999999776482582,
        0.0,
        0.0,
        0.0,
        0.0,
        0.0,
        1.0
      ],
      "name": "2cadeacdc25d4de996224c5744612329.fbx"
    },
    {
      "children": [
        3
      ],
      "name": "Object_2"
    },
    {
      "children": [
        4
      ],
      "name": "RootNode"
    },
    {
      "children": [
        5,
        6,
        7,
        8,
        9
      ],
      "name": "Plane",
      "rotation": [
        -0.5811749696731567,
        -0.40278497338294983,
        -0.40278512239456177,
        0.5811747312545776
      ],
      "scale": [
        99.99999237060547,
        99.99999237060547,
        100.0
      ]
    },
    {
      "mesh": 0,
      "name": "Plane_Material.001_0"
    },
    {
      "mesh": 1,
      "name": "Plane_Material.001_0"
    },
    {
      "mesh": 2,
      "name": "Plane_Material.001_0"
    },
    {
      "mesh": 3,
      "name": "Plane_Material.001_0"
    },
    {
      "mesh": 4,
      "name": "Plane_Material.001_0"
    }
  ],
  "scene": 0,
  "scenes": [
    {
      "name": "Sketchfab_Scene",
      "nodes": [
        0
      ]
    }
  ]
}
